<?xml version="1.0" standalone="no"?>
<!DOCTYPE svg PUBLIC "-//W3C//DTD SVG 20010904//EN"
 "http://www.w3.org/TR/2001/REC-SVG-20010904/DTD/svg10.dtd">
<svg version="1.0" xmlns="http://www.w3.org/2000/svg"
 width="300.000000pt" height="274.000000pt" viewBox="0 0 300.000000 274.000000"
 preserveAspectRatio="xMidYMid meet">

<g transform="translate(0.000000,274.000000) scale(0.100000,-0.100000)"
fill="#000000" stroke="none">
<path d="M1300 2700 c-606 -62 -1085 -510 -1185 -1109 -25 -150 -17 -387 19
-529 127 -504 517 -879 1029 -989 115 -25 409 -25 524 0 513 111 902 484 1029
989 36 142 44 379 19 529 -71 426 -335 783 -723 978 -201 101 -487 153 -712
131z m332 -165 c413 -72 774 -382 907 -780 179 -534 -41 -1116 -527 -1398
-606 -352 -1391 -89 -1669 558 -105 245 -122 533 -47 793 87 301 317 577 599
719 86 44 227 92 315 108 102 18 318 18 422 0z"/>
<path d="M1315 2524 c-429 -47 -805 -330 -961 -725 -263 -670 151 -1418 861
-1554 104 -20 316 -20 420 0 710 136 1124 884 861 1554 -139 351 -456 620
-828 702 -86 19 -276 31 -353 23z m357 -168 c553 -140 882 -713 723 -1259
-115 -399 -464 -687 -876 -726 -292 -28 -572 70 -786 273 -358 338 -422 876
-154 1283 163 247 423 412 713 453 100 14 273 3 380 -24z"/>
<path d="M1249 2344 c-373 -67 -677 -349 -776 -721 -36 -136 -38 -344 -5 -477
100 -399 430 -692 838 -747 289 -38 602 70 813 282 123 123 220 294 263 465
34 134 31 341 -5 479 -133 497 -624 811 -1128 719z m333 -138 c221 -42 419
-174 542 -360 95 -143 134 -260 142 -431 20 -380 -220 -724 -586 -843 -400
-130 -834 61 -1018 446 -62 131 -86 253 -78 397 8 171 47 289 141 430 123 185
320 317 535 360 88 18 232 18 322 1z"/>
<path d="M1338 1963 l-83 -158 -122 -3 -123 -3 0 -125 0 -125 -160 -77 c-88
-42 -160 -80 -160 -83 0 -4 55 -37 123 -74 67 -37 139 -79 160 -92 l37 -23 0
-120 0 -120 119 0 119 0 59 -107 c31 -60 70 -134 86 -167 16 -33 32 -55 37
-50 5 5 37 63 71 129 34 66 73 137 86 158 l23 37 120 0 120 0 0 124 0 124 113
65 c61 35 131 74 155 86 23 12 42 25 42 29 0 4 -70 40 -155 81 l-155 74 0 129
0 128 -124 0 -125 0 -63 118 c-35 64 -72 136 -82 160 -10 23 -22 42 -27 42 -4
0 -45 -71 -91 -157z m158 -98 l67 -124 111 -3 111 -3 3 -115 3 -116 121 -60
121 -61 -121 -69 -122 -69 0 -112 0 -112 -112 -3 -113 -3 -69 -129 -69 -128
-71 131 -71 131 -107 0 -107 0 -3 111 -3 112 -124 70 -124 70 126 64 127 63 0
115 0 114 111 3 111 3 66 123 c37 67 67 122 69 122 1 0 32 -56 69 -125z"/>
<path d="M1331 1472 c-50 -48 -91 -91 -91 -96 0 -15 169 -176 185 -176 8 0 54
38 101 84 97 94 97 100 26 153 -20 15 -39 32 -40 36 -2 4 -15 21 -29 38 -49
58 -53 57 -152 -39z m146 -44 c14 -13 23 -33 23 -50 0 -36 -40 -78 -75 -78
-14 0 -37 11 -50 25 -14 13 -25 36 -25 50 0 34 42 75 76 75 15 0 38 -10 51
-22z"/>
<path d="M1385 1415 c-29 -28 -31 -42 -9 -73 17 -25 74 -31 92 -9 24 30 23 56
-2 82 -31 31 -50 32 -81 0z"/>
</g>
</svg>
